<svg version="1.0" xmlns="http://www.w3.org/2000/svg" width="128" height="128" viewBox="0 0 96 96"><path d="M37 1.6C22.2 5.5 11.4 14.3 4.7 27.8L.5 36.3v12.1c0 11.9.1 12.2 3.7 19.9 5 10.5 13 18.5 23.5 23.5 7.7 3.7 7.9 3.7 20.3 3.7s12.6 0 20.3-3.7c5.4-2.6 9.7-5.6 13.8-9.7 4.1-4.1 7.1-8.4 9.7-13.8 3.7-7.7 3.7-7.9 3.7-20.3s0-12.6-3.7-20.3C81.9 6.9 58.6-4.1 37 1.6zM62.3 24c3.1 1.2 5.7 2.3 5.7 2.6 0 .2-1.2 2.2-2.6 4.3l-2.5 3.9 4 6c5.1 7.4 7.1 13 7.1 19.6 0 6.5-2.6 10.8-8.2 13.8-3.8 2.1-5.7 2.3-17.3 2.3-11.6 0-13.5-.2-17.3-2.3-5.7-3-8.2-7.3-8.2-13.9 0-6.4 2.1-12 7.3-19.5l4-5.8-2.7-4-2.6-4 2.3-1.4c7.2-4.8 20.7-5.5 31-1.6z"/><path d="M33 42.2c-4.7 6.3-7.1 12.5-7.2 18.2 0 4.5.4 5.4 3.5 8.3C34 73 39.5 74.3 51 73.8c10.4-.4 14.6-2 18.3-7 4-5.4 1.3-16.9-6-25.6-2.8-3.4-2.8-3.4-7.6-2.1-4.5 1.1-12.3.8-17.4-.7-1.7-.5-2.8.3-5.3 3.8zM52.8 47c3.3 2 4.3 5 1.7 5-.8 0-1.5-.5-1.5-1 0-.6-.7-1-1.5-1-2.4 0-1.8 4.7.8 6.1 2.9 1.6 3.7 2.8 3.7 6 0 2.5-1.5 4.3-5.5 6.5-1.6.9-2.7.7-5.8-1.3-2-1.3-3.7-3-3.7-3.8 0-2 2.6-1.9 3.4.1.8 2.2 2.6.7 2.6-2.2 0-1.7-.8-2.7-2.4-3.3-4.8-1.9-5-8.3-.3-11.1 1.7-1.1 3.7-2 4.2-2 .6 0 2.5.9 4.3 2z"/></svg>