<svg version="1.0" xmlns="http://www.w3.org/2000/svg" width="257.333" height="222.667" viewBox="0 0 193 167"><path d="M13.1 1.8c-1.9.9-4.4 3-5.5 4.5-2.1 2.8-2.1 4.1-2.4 55.5-.2 35.2 0 53.9.8 56.4.5 2 2.6 5 4.5 6.7l3.6 3.1H65v32h-9c-8 0-9 .2-10 2.1-2.7 5-4 4.9 53.4 4.9 57.3 0 56.4.1 53-4.9-1.3-1.9-2.5-2.1-10-2.1H134v-32h24.8c27.1 0 28.1-.2 31.9-5.9l2.3-3.4V64.3c0-60.8.3-58.1-7-62.2C182.3 0 181.6 0 99.4 0c-77 0-83.1.1-86.3 1.8zm170.1 8.9c1.7 1.5 1.8 4.2 1.8 44V97H14V54.2c0-32 .3-43.1 1.2-44C16.1 9.3 36.1 9 98.9 9c75.3 0 82.6.1 84.3 1.7zM185 111c0 3.7-.5 5.5-2 7-2 2-3.3 2-83.7 2-93 0-85.3.8-85.3-8.7V106h171v5zm-60.2 33.2.3 15.8H74v-32l25.3.2 25.2.3.3 15.7z"/></svg>