<svg version="1.0" xmlns="http://www.w3.org/2000/svg" width="280" height="169.333" viewBox="0 0 210 127"><path d="M14.9 2.3C9.8 5 4.5 11.4 3 16.8c-.6 2.3-1 20-1 46.3 0 46.8.2 49.1 6 56.1 1.6 2 4.9 4.6 7.3 5.7 4.3 2.1 5.1 2.1 91.3 2.1h87l5.4-3.3c4.2-2.5 6.1-4.4 8.2-8.6l2.8-5.3V63.3c0-43.6-.1-46.6-1.9-50.1-2.4-4.7-6.6-8.9-11.3-11.3C193.2.1 189.6 0 106.2 0H19.3l-4.4 2.3zm179.2 8c1.8 1.2 4.4 3.8 5.6 5.6l2.3 3.4v43.5c0 41.5-.1 43.8-2 47.7-1.3 2.6-3.4 4.9-5.9 6.3l-3.9 2.2h-83.8c-77.9 0-84.1-.1-87.3-1.8-1.9-.9-4.4-3-5.5-4.5-2-2.8-2.1-4.1-2.4-48.4l-.3-45.6 2.5-3.7c4.9-7.4-.6-7 93.2-7h84.1l3.4 2.3z"/><path d="M63.6 40.6c-1.2 1.2-1.6 3.6-1.6 10V59h-8.4C45 59 42 60.2 42 63.5S45 68 53.6 68H62v8.4c0 6.4.4 8.8 1.6 10 4.3 4.4 7.4-.1 7.4-10.6V68h8.5c7.9 0 8.6-.2 10.1-2.5 1.6-2.4 1.6-2.7-.1-4.5-1.5-1.7-3.1-2-10.2-2H71v-8.3c0-6.9-.3-8.7-1.8-10-2.3-2.1-3.6-2.1-5.6-.1z"/></svg>