<svg version="1.0" xmlns="http://www.w3.org/2000/svg" width="126.667" height="121.333" viewBox="0 0 95 91"><path d="M39.1 1.1c-15.3 3-29.1 15-34 29.7C3.2 36.3 3 39.3 3 59.3c0 21.2.1 22.6 2.1 25.1 3 3.9 7.1 5.6 13.1 5.6C30.3 90 34 85 34 69c0-12.2-1.5-16.2-7.1-19.2-3.5-2-12.4-2.1-17.8-.3l-2.4.8.6-7.8c1.1-15.1 9.6-27.2 23.5-33.8 6.1-2.9 7.5-3.2 16.7-3.2s10.6.3 16.7 3.2c13.9 6.6 22.5 19.2 23.5 34.4l.6 8.1-3.1-1.6c-4.7-2.4-13.2-2.1-17.3.7C62.5 53.9 61 58 61 69c.1 16 3.9 21 16.2 21 6 0 10.6-2.3 13.5-6.7 1.5-2.3 1.9-5.4 2.1-19.3.2-9.1-.1-19.9-.7-24-3.6-26-27.9-43.8-53-38.9zM26.7 55.2c2.1 2 2.3 2.9 2.3 13.7 0 10.4-.2 11.7-2.2 13.8-1.8 1.9-3.2 2.3-8.5 2.3-5.5 0-6.8-.4-8.8-2.5C7.1 80.2 7 79.4 7 69s.1-11.2 2.5-13.5c2-2.1 3.4-2.5 8.6-2.5 5.1 0 6.7.4 8.6 2.2zm58.8.4C87.8 58.1 88 59 88 69.2s-.1 11-2.5 13.3c-2.1 2.1-3.3 2.5-8.9 2.5-5.8 0-6.7-.3-8.5-2.6-1.8-2.3-2.1-4.1-2.1-13.6 0-10.2.1-11 2.5-13.3 2-2.1 3.4-2.5 8.5-2.5 5.3 0 6.4.3 8.5 2.6z"/></svg>