<svg version="1.0" xmlns="http://www.w3.org/2000/svg" width="666.667" height="666.667" viewBox="0 0 500 500"><path d="M313.4 175.4c2 2.5 3.2 4.7 2.7 5-.5.4-1.2.2-1.6-.4-.3-.5-2.6-1-4.9-1-3.6 0-4.7.5-6.1 2.6l-1.7 2.6-2.2-2.1c-3-2.8-8.9-2.8-11.4-.1-1.7 1.8-2.1 1.9-3.2.5-1.5-1.8-8.6-1-11.3 1.3-1.3 1.2-2 1.3-2.9.4-2-2-9.2-1.5-11.3.8-1.6 1.8-2 1.9-2.7.5-.6-1-2.4-1.5-5.3-1.5-3.6 0-4.7.5-6.9 3.1-2.6 3.1-3 4-2.7 7.1.4 3.1-2.5 1.9-5.4-2.3-1.6-2.2-3.6-4.4-4.5-4.9-2.6-1.4-9.9 0-11.5 2.3l-1.4 2-1.8-2.1c-1.6-1.8-2.4-2-6.7-1.3-2.8.5-5.3 1.5-5.8 2.5-1.1 2-3.4 2.1-4.2.1-.8-2.2-10.5-1-12.8 1.6-2 2.4-3 2.4-4.4.1-.9-1.3-2.2-1.6-6.3-1.4-4.8.4-5.4.7-7.8 4.3-1.8 2.7-2.3 4.6-1.9 6.3.5 2.1.2 2.5-2.1 2.9-2.3.3-2.2.4.8.6 2.7.1 4.1.8 5.3 2.6 1.8 2.8 1.9 3.4.6 5.5-.7 1.2-1.2 1.1-3-.5-1.1-1-3-1.9-4.3-2-1.7-.1-2.3-.9-2.5-3.5-.2-1.9-2-5.8-3.9-8.8-3.3-4.9-3.9-5.3-6.6-4.8-1.6.3-4.2.6-5.8.6-2.2 0-3.2.7-4.5 3.1l-1.6 3.2-2.2-2.8c-1.9-2.3-2.7-2.7-5.2-2.1-1.6.4-4.2.7-5.9.6-2.4 0-3.4.7-4.8 3.2l-1.8 3.2-2.1-3.3c-1.5-2.3-2.5-3-3.7-2.5-.9.3-3.7.9-6.2 1.1-3.8.4-4.9 1-6.4 3.6l-1.8 3-2.6-3.2c-2.2-2.7-3.1-3.1-5.4-2.6-1.5.4-3 1.1-3.2 1.6-.3.4-1.9.6-3.5.3-2.6-.6-3.1-.2-4.9 3.5-2.7 5.1-2.6 6 .4 10.1 1.4 1.9 2.5 3.9 2.5 4.6 0 1.9-5.4 3.6-9.3 2.9-3.3-.7-3.5-.5-4.7 2.9-.6 2-.9 4-.5 4.6.3.5.2 1-.4 1-.5 0-2-1.9-3.3-4.3-1.8-3.1-3-4.1-4.6-4-1.7.2-2.2-.4-2.7-3.5-.3-2-1.9-6.6-3.6-10.1l-3-6.3-3.7.7c-2 .4-4 .9-4.4 1.1-2 1.2.4 4.9 3.1 4.9 2.5 0 2.2 2.1-.4 3.5-2.2 1.2-2.7 1.1-4-.6-.8-1-1.8-3.2-2.1-4.7-.8-3.6-2.3-3-5.2 1.9-2.6 4.6-2.3 6.6 1.9 13 2.8 4.1 3.5 4.5 6 4 3.6-.7 4.4.6 2.4 4.3-1.7 3.4-2 8.1-.5 8.1.5 0 1.9 1.8 3 4 1.2 2.3 2.7 4.3 3.5 4.7.8.3 1.5 1.6 1.5 2.9 0 2.7 5.6 13.4 7.7 14.7.7.4 1.3 1.7 1.3 2.8 0 2.2 5.7 14.1 7.3 15.1.6.3 1.7.4 2.5 0 1.2-.4 1.4 0 .8 2.2-.9 3.6 5.9 16.6 8.7 16.6 1.5 0 1.7.5 1.2 3-.5 2.3.2 4.4 3.1 9.7 2.1 3.7 4.2 7.1 4.7 7.4.8.6 14.7-1.9 22.9-4.2 3.3-.8 3.8-1.4 3.8-3.9 0-3.7 1.3-3.9 2.8-.5.6 1.4 1.6 2.5 2 2.5.5 0 5.9-1.1 12-2.5s11.3-2.5 11.5-2.5c.3 0 .8-1.2 1.1-2.6l.7-2.6 1.9 2.5c3.3 4.1 7.1 5.1 14.3 3.8 11.7-2.3 13.7-3 13.7-5.1 0-2.4.9-2.5 2.5-.3 1.1 1.5 2.6 1.3 18.6-2 27-5.7 29.1-5.9 33.8-4.5 2.3.7 4.1 1.6 4.1 2 0 1.4-12.1 4.5-68 17.7-12.8 3.1-13.7 3.1-17.2 1.7-4.1-1.8-11.3-.9-16.9 1.9-1.7.9-7.1 2.1-12.1 2.6-4.9.5-12.2 2-16.2 3.4-9.1 3.1-11.1 3.1-13.2 0-1.2-1.8-2.5-2.5-5-2.5-3.8 0-3.3.7-18.4-28.5-4.6-8.8-11.3-21.6-15-28.5-12.9-23.9-15.2-29-13.9-30.6.9-1.1.6-1.6-1.4-2.3-1.5-.6-3.3-2.4-4.2-4.1-3.1-6-4.1-3.7-3.6 8.7.1 1.1 2.1 4.8 4.6 8.1 2.5 3.3 4.5 6.4 4.3 6.9-.7 2.6 4.1 15.1 7 18.1.6.7 1.2 2.4 1.2 3.8 0 1.3.6 2.4 1.4 2.4.8 0 1.3 1.1 1.2 2.7-.1 1.6.8 4.4 2 6.3 1.2 1.9 2.5 4.6 2.9 6 .7 2.2 9.3 20.1 11.6 24 1 1.7 4.2 8.3 4.3 9 .1.3 2.3 4.9 4.9 10.3l4.7 9.9 3.3-.7c1.7-.4 12.4-2.9 23.7-5.6 22.9-5.5 32.9-7.9 60.5-14.3 10.5-2.5 24.9-5.9 32-7.6 62.2-14.9 99.2-23.7 117-28 11.6-2.8 34.3-8.3 50.5-12.2 16.2-3.9 43.5-10.4 60.5-14.6 17.1-4.1 32.2-7.7 33.8-7.9 1.5-.3 2.7-.8 2.7-1.2 0-.4-2.5-3.1-5.5-6.1-5.1-5-5.5-5.8-5.5-10 0-5.2-.6-6-12.5-15.4-3.8-3.1-8-5.6-9.2-5.6-1.9 0-2.3-.5-2.3-3.3 0-3-.9-4.1-9.6-11-5.3-4.2-10.5-7.7-11.5-7.7-1.4 0-1.9-.7-1.9-2.5 0-1.3-1.4-4.1-3.2-6.1-3-3.4-3.5-3.6-7.7-3.1-3.1.3-5.2 0-6.8-1-2.3-1.5-9.1-1.4-20.8.2-5.8.9-20 2.5-21.2 2.5-.7 0-1.3-.8-1.3-1.8s-1.6-3.3-3.5-5.2c-2.9-2.8-4.2-3.4-7.2-3.2-2 .2-4.3.8-5 1.4-.9.7-1.7.7-2.7-.1-.7-.6-2.6-.8-4.3-.5-2.6.5-3.7 0-6.8-3-5.1-5-6.5-4.5-2.1.8zM76.8 239.3c4.6-.5 5.5-.3 7.5 1.8 3.9 4 4 5.6.4 6.8-4 1.3-15.2 3.1-19.2 3.1-2.5 0-3.5-.8-5.8-4.5-1.5-2.5-2.7-4.7-2.7-4.9 0-.2 2.7-.6 6-1s6-1.2 6-1.8c0-.7.4-.7 1.3.1.8.6 3.3.8 6.5.4zm18.1 16.4c1.3-.3 2.4.1 2.9 1 .5.8 2 1.6 3.4 1.6 2 .2 2.5.7 2.4 2.9-.1 2.9-1.3 2.7-2.6-.6-.8-2-.9-1.9-.9.6-.1 1.4.5 2.9 1.2 3.2.6.4.2.4-1 .2s-2.3 0-2.5.5c-.4 1.1-11.8 3.5-20.1 4.2l-5.8.6-3.4-4.7c-2-2.8-2.9-4.8-2.2-5 .7-.1 6.1-.8 12.2-1.6 7.7-1 11.3-1.9 12-3 .6-1 1.2-1.2 1.6-.4.4.6 1.6.8 2.8.5zm21.1 19.5c1.1-.7 3.9-1.5 6-1.8l4-.6v4.1c0 2.3-.2 4.1-.5 4.1s-4.9.9-10.1 2.1c-13.5 2.9-12.9 2.8-23.2 4.1-8.7 1.1-9.3 1-10.7-.8-3.7-4.7-3.7-5.3-.3-5.8 1.8-.2 6.6-.9 10.6-1.5s8.3-1.1 9.6-1.1c3.4 0 5.6-2.5 5.6-6.3v-3.2l3.4 4c3.1 3.6 3.7 3.9 5.6 2.7zm98 1c-.3.4.4 1.4 1.5 2.2 2.3 1.8 1.3 2.1-1.6.5-1.4-.7-2.4-.7-3.3 0-.7.6-1.5.9-1.8.6-.3-.3-5.6.8-11.9 2.4-17.2 4.4-18.2 4.5-20.8 1.7-1.4-1.5-1.7-2.4-.9-2.3 2.7.3 13.4-1.5 17.8-2.9 2.6-.9 4.6-1.1 4.8-.6.2.6 2.7.3 5.9-.7 5.8-1.7 11.2-2.2 10.3-.9zm-52.7 9.4 6.6-.4-.6 2.9c-.4 2.2-.2 2.9 1 2.9.8 0 1.4.8 1.3 1.7 0 1 .5 1.7 1.2 1.5 1.4-.2 1.7 1.4.4 2.2-.5.3-2.7.8-4.9 1.2-2.9.4-4.4.2-5.5-1-.9-.8-1.8-1.2-2.2-.9-.3.4-.6-.1-.6-1 0-1-.7-1.7-1.5-1.7s-1.5-.9-1.5-2.1c0-1.1-.4-1.8-.9-1.5-1.5 1-3.1-1.9-2.4-4.3.5-2.2.7-2.2 1.8-.7 1 1.3 2.5 1.5 7.8 1.2zm-29.3 1.8c0 1.4 4.2 5.2 5.3 4.8.4-.1.7.5.7 1.3s1 1.9 2.2 2.6c2.7 1.4 1.5 2.2-6.5 3.9-5.7 1.3-5.7 1.3-8.7-1.6-1.6-1.6-3-3.2-3-3.6 0-.3 1.6-1.6 3.6-2.7 2.9-1.8 3.5-2.6 3-4.5-.3-1.3-.3-2.6.1-2.9.8-.9 3.3 1.2 3.3 2.7zM455.5 260c-3.8 1-20.5 5-37 9-16.5 3.9-40.1 9.6-52.5 12.6-12.4 2.9-43.2 10.3-68.5 16.4-40.3 9.7-59.1 14.1-98.5 23.5-5.2 1.2-33.1 7.9-62 14.9-28.9 6.9-53.5 12.8-54.7 13.1-4.5 1.1-2 9.5 3.4 11.6 2.5.9 14.6-1.9 85.8-20.1 14.9-3.8 44.6-11.4 66-16.8 114.6-29.1 151.6-38.6 167.5-42.7 9.6-2.5 25.8-6.6 36-9.2 15.3-3.9 19-5.1 21.3-7.4 2.8-2.8 3.7-7 1.5-6.8-.7 0-4.4.9-8.3 1.9z"/></svg>