<svg version="1.0" xmlns="http://www.w3.org/2000/svg" width="169.333" height="262.667" viewBox="0 0 127 197"><path d="M7.2 5C5.4 6.1 3.1 8.4 2 10.2c-1.9 3.2-2 5.3-2 90.1 0 94.5-.3 90 5.6 94.6C8.2 197 9 197 62.2 197c60.2 0 57 .4 60.9-7.1 1.8-3.7 1.9-6.6 1.9-89.4 0-83.2-.1-85.7-2-89.4-1.1-2.2-3.5-4.8-5.3-6C114.3 3 113.4 3 62.4 3c-50 0-52 .1-55.2 2zM46 12c0 .5.9 1.9 2 3 1.8 1.8 3.3 2 16 2s14.2-.2 16-2c1.1-1.1 2-2.5 2-3 0-.6 5.6-1 14.8-1 14.7 0 14.9 0 17.3 2.6l2.4 2.6v130.3l-54.2.3L8 147V15.9l2.5-2.4c2.4-2.5 2.7-2.5 19-2.5 10.3 0 16.5.4 16.5 1zm70.8 155.5c.4 14.3-.2 17.8-3 20.5-2.1 1.9-3.6 2-51.5 2H12.9l-2.4-2.5C8.1 185.2 8 184.7 8 170v-15l54.3.2 54.2.3.3 12z"/></svg>