<svg version="1.0" xmlns="http://www.w3.org/2000/svg" width="128" height="128" viewBox="0 0 96 96"><path d="M35.1 1.6c-13.3 3.6-24.7 13.2-30.8 26C.5 35.4.5 35.6.5 48c0 12.4 0 12.6 3.7 20.3 5 10.5 13 18.5 23.5 23.5 7.7 3.7 7.9 3.7 20.3 3.7s12.6 0 20.3-3.7c10.5-5 18.5-13 23.5-23.5 3.7-7.7 3.7-7.9 3.7-20.3 0-12.3-.1-12.6-3.6-20-4.5-9.3-9.6-15.2-17.3-20.2C63.2.4 48.2-1.9 35.1 1.6zM75 24.4c1.6 4.2 2.3 14.3 1.1 15-.7.5-1.1 5.9-1.1 16.2C75 77.3 76.6 76 49 76c-22.8 0-26.1-.6-27.4-5.2-.3-1.3-.6-8.6-.6-16.4 0-8.9-.4-14.4-1.1-15.1-.8-.8-.8-3.1.1-8.5.7-4 1.4-7.6 1.7-8.1.2-.4 12.1-.7 26.4-.7H74l1 2.4z"/><path d="m29.2 41.4-4.3 1 .3 14.5.3 14.6 6.3.3 6.2.3V63c0-11.4 1.2-13 9.5-13 4.6 0 6 .4 8 2.5 2.3 2.2 2.5 3.2 2.5 11V72h5.8c3.2 0 6.3-.5 7-1.2.8-.8 1.2-5.6 1.2-14.9V42.3l-4.2-.7c-2.4-.4-5.1-.7-6-.6-1.7.1-6.8.2-13.8.2-1.6 0-4.7 0-6.7.1-2.1.1-4.7-.1-5.8-.4-1.1-.3-3.9-.1-6.3.5z"/><path d="M42.8 54.1c-1.5.8-1.8 2.5-1.8 9.4V72h14v-7.3c0-9.1-1.5-11.7-6.8-11.7-2 0-4.5.5-5.4 1.1z"/></svg>