<?xml version="1.0" standalone="no"?>
<!DOCTYPE svg PUBLIC "-//W3C//DTD SVG 20010904//EN"
 "http://www.w3.org/TR/2001/REC-SVG-20010904/DTD/svg10.dtd">
<svg version="1.0" xmlns="http://www.w3.org/2000/svg"
 width="131.000000pt" height="192.000000pt" viewBox="0 0 131.000000 192.000000"
 preserveAspectRatio="xMidYMid meet">
<metadata>
Created by potrace 1.16, written by Peter Selinger 2001-2019
</metadata>
<g transform="translate(0.000000,192.000000) scale(0.100000,-0.100000)"
fill="#000000" stroke="none">
<path d="M340 1880 c-12 -7 -16 -40 -20 -151 l-5 -141 -61 -19 c-83 -26 -153
-88 -196 -177 l-33 -67 -3 -353 c-3 -301 -1 -361 13 -410 19 -66 71 -148 115
-181 39 -29 130 -71 153 -71 15 0 17 -13 17 -138 0 -94 4 -142 12 -150 17 -17
649 -17 666 0 8 8 12 56 12 150 0 125 2 138 18 138 24 0 116 44 157 75 47 37
91 109 110 183 14 53 16 117 13 410 l-3 347 -33 67 c-43 89 -113 151 -196 177
l-61 19 -5 141 c-4 111 -8 144 -20 151 -9 6 -147 10 -325 10 -178 0 -316 -4
-325 -10z m580 -185 l0 -105 -255 0 -255 0 0 105 0 105 255 0 255 0 0 -105z
m145 -213 c60 -28 100 -64 128 -117 21 -38 22 -53 25 -395 2 -251 0 -367 -8
-395 -19 -63 -63 -118 -122 -150 l-53 -30 -370 0 c-360 0 -371 1 -410 22 -56
29 -121 103 -134 149 -7 24 -11 171 -11 389 0 346 0 351 24 400 24 53 80 109
125 127 60 23 122 26 431 25 316 -2 326 -3 375 -25z m-147 -1284 l3 -108 -256
0 -255 0 0 110 0 110 253 -2 252 -3 3 -107z"/>
<path d="M462 1188 c-17 -17 -17 -509 0 -526 18 -18 56 -14 68 7 6 12 10 112
10 256 0 144 -4 244 -10 256 -12 21 -50 25 -68 7z"/>
<path d="M811 1061 c-20 -20 -21 -32 -21 -197 0 -102 4 -183 10 -195 12 -22
52 -25 69 -5 8 9 11 71 9 201 -3 180 -4 188 -25 202 -19 13 -24 12 -42 -6z"/>
<path d="M630 971 c-5 -11 -10 -79 -10 -151 0 -72 5 -140 10 -151 6 -11 21
-19 35 -19 14 0 29 8 35 19 5 11 10 79 10 151 0 72 -5 140 -10 151 -6 11 -21
19 -35 19 -14 0 -29 -8 -35 -19z"/>
</g>
</svg>
